<svg width="32" height="40" viewBox="0 0 32 40" fill="none" xmlns="http://www.w3.org/2000/svg">
<path d="M20.0391 21.0869C20.0391 24.6221 19.0771 27.3271 17.1533 29.2021C15.2393 31.0674 12.4805 32 8.87695 32H2.94434V10.584H9.50684C12.8369 10.584 15.4248 11.5068 17.2705 13.3525C19.1162 15.1982 20.0391 17.7764 20.0391 21.0869ZM17.4023 21.1748C17.4023 18.3818 16.6992 16.2773 15.293 14.8613C13.8965 13.4453 11.8164 12.7373 9.05273 12.7373H5.43457V29.8467H8.4668C11.4355 29.8467 13.667 29.1191 15.1611 27.6641C16.6553 26.1992 17.4023 24.0361 17.4023 21.1748Z" fill="white"/>
<path d="M8.94434 32V10.584H11.4346V32H8.94434Z" fill="white"/>
<path d="M21.4346 32H18.9443V10.584H30.8828V12.7959H21.4346V20.6328H30.3115V22.8447H21.4346V32Z" fill="white"/>
</svg>
