<svg width="20" height="18" viewBox="0 0 20 18" fill="none" xmlns="http://www.w3.org/2000/svg">
<path d="M19.1667 8H0.833333C0.373332 8 0 8.448 0 9C0 9.552 0.373332 10 0.833333 10H19.1667C19.6267 10 20 9.552 20 9C20 8.448 19.6267 8 19.1667 8Z" fill="white"/>
<path d="M19.1667 0H0.833333C0.373332 0 0 0.447998 0 1C0 1.552 0.373332 2 0.833333 2H19.1667C19.6267 2 20 1.552 20 1C20 0.447998 19.6267 0 19.1667 0Z" fill="white"/>
<path d="M19.1667 16H0.833333C0.373332 16 0 16.448 0 17C0 17.552 0.373332 18 0.833333 18H19.1667C19.6267 18 20 17.552 20 17C20 16.448 19.6267 16 19.1667 16Z" fill="white"/>
</svg>
